# Blender v2.79 (sub 0) OBJ File: 'Lowest_Poly_Security_Guard.blend'
# www.blender.org
mtllib Security_Guard.mtl
o Cylinder
v -2.783264 4.100321 -0.037867
v -2.783264 5.220144 -0.037867
v -2.783264 4.100321 0.052306
v -2.783264 5.220144 0.052306
v -2.861356 4.100321 0.007219
v -2.861356 5.220144 0.007219
v -2.783264 4.385391 -0.037867
v -2.783264 4.425972 0.052306
v -2.861356 4.385391 0.007219
v -2.783264 4.466554 -0.037867
v -2.861356 4.466554 0.007219
v -2.628149 4.425972 0.052306
v -2.628149 4.385391 -0.037867
v -2.628149 4.466554 -0.037867
vn 1.0000 0.0000 0.0000
vn -0.5000 0.0000 0.8660
vn 0.0000 1.0000 0.0000
vn -0.5000 0.0000 -0.8660
vn 0.0000 -1.0000 0.0000
vn 0.0000 0.0000 -1.0000
vn -0.0000 0.9119 0.4104
vn -0.0000 -0.9119 0.4104
usemtl Material.006
s off
f 10//1 2//1 4//1 8//1
f 8//2 4//2 6//2 11//2
f 4//3 2//3 6//3
f 11//4 6//4 2//4 10//4
f 1//5 3//5 5//5
f 5//4 9//4 7//4 1//4
f 3//2 8//2 9//2 5//2
f 1//1 7//1 8//1 3//1
f 9//4 11//4 10//4 7//4
f 8//2 11//2 9//2
f 7//6 10//6 14//6 13//6
f 13//1 14//1 12//1
f 10//7 8//7 12//7 14//7
f 8//8 7//8 13//8 12//8
o Cube_Cube.001
v -0.539092 -0.095449 0.034610
v -0.535014 0.104593 0.034610
v -0.417291 -0.095449 -0.236734
v -0.417291 0.123654 -0.236734
v -0.417291 -0.095449 0.415530
v -0.417291 -0.021366 0.415530
v -0.295490 -0.095449 0.034610
v -0.299568 0.104593 0.034610
v -0.473346 0.266583 -0.054834
v -0.417291 0.266351 -0.167423
v -0.361236 0.266583 -0.054834
v -0.638741 2.313296 0.055902
v -0.256546 2.312378 -0.388895
v -0.212367 1.289939 0.000534
v -0.556044 1.289939 0.000534
v -0.351119 1.289364 -0.278159
v -0.547641 1.185957 -0.005091
v -0.231543 1.185957 -0.005091
v -0.361892 1.185417 -0.266907
v -0.638741 2.829369 0.055902
v -0.761697 4.442465 0.112231
v -0.470136 4.442465 -0.473388
v -0.178576 4.442465 0.240522
v -2.633485 4.305117 0.043631
v -2.642819 4.305544 -0.036639
v -2.616180 4.243433 0.012587
v -1.629065 4.432533 0.185284
v -1.571303 4.226647 0.081664
v -1.660219 4.433961 -0.082641
v -1.694202 4.430353 0.188183
v -1.727048 4.431858 -0.094289
v -1.633304 4.213288 0.078937
v -2.738785 4.184092 0.021302
v -2.780976 4.334480 0.096990
v -2.803732 4.335522 -0.098713
v -2.955816 4.260347 0.052662
v -2.966028 4.296747 0.070982
v -2.971536 4.296999 0.023613
v -0.380783 5.353068 0.018980
v -0.239446 4.898214 -0.273809
v -0.239446 4.898214 0.147006
v -0.331442 5.353068 -0.236883
v -0.239446 5.353068 0.147006
v -0.158643 5.670409 0.018980
v -0.158643 5.670409 -0.253908
v -0.190391 5.353068 -0.378301
v -0.119723 4.903524 -0.378301
v -0.239446 5.353068 0.455438
v -0.221955 1.237948 -0.002279
v -0.356506 1.237391 -0.272533
v -0.551842 1.237948 -0.002279
v -1.661633 4.431443 0.186734
v -1.693634 4.432909 -0.088465
v -1.602304 4.219967 0.080301
v 0.539092 -0.095449 0.034610
v 0.535014 0.104593 0.034610
v 0.417291 -0.095449 -0.236734
v 0.417291 0.123654 -0.236734
v 0.417291 -0.095449 0.415530
v 0.417291 -0.021366 0.415530
v 0.295490 -0.095449 0.034610
v 0.299568 0.104593 0.034610
v 0.473346 0.266583 -0.054834
v 0.417291 0.266351 -0.167423
v 0.361236 0.266583 -0.054834
v 0.638741 2.313296 0.055902
v 0.256546 2.312378 -0.388895
v -0.000000 2.313296 0.223297
v 0.212367 1.289939 0.000534
v 0.556044 1.289939 0.000534
v 0.351119 1.289364 -0.278159
v 0.547641 1.185957 -0.005091
v 0.231543 1.185957 -0.005091
v 0.361892 1.185417 -0.266907
v 0.638741 2.829369 0.055902
v -0.000000 2.812057 0.286563
v 0.000000 2.289626 -0.388895
v 0.761697 4.442465 0.112231
v 0.470136 4.442465 -0.473388
v 0.178575 4.442465 0.240522
v -0.000000 4.442465 0.284014
v 0.000000 4.442465 -0.473388
v 0.000000 4.723982 -0.122017
v 2.633485 4.305117 0.043631
v 2.642819 4.305544 -0.036638
v 2.616180 4.243433 0.012587
v 1.629065 4.432533 0.185285
v 1.571303 4.226647 0.081664
v 1.660219 4.433961 -0.082641
v 1.694202 4.430353 0.188183
v 1.727048 4.431858 -0.094289
v 1.633304 4.213288 0.078937
v 2.738785 4.184092 0.021302
v 2.780976 4.334480 0.096991
v 2.803732 4.335522 -0.098713
v 2.955816 4.260347 0.052663
v 2.966028 4.296747 0.070983
v 2.971536 4.296999 0.023614
v 0.380783 5.353068 0.018980
v 0.239446 4.898214 -0.273809
v 0.239446 4.898214 0.147006
v 0.331442 5.353068 -0.236883
v -0.000000 4.898214 0.225032
v 0.239446 5.353068 0.147006
v -0.000000 5.353068 0.225032
v 0.158643 5.670409 0.018980
v 0.158643 5.670409 -0.253908
v -0.000000 5.670409 0.018980
v 0.000000 5.683458 -0.271298
v 0.000000 5.353068 -0.419798
v 0.000000 4.908834 -0.401151
v 0.190391 5.353068 -0.378301
v 0.119723 4.903524 -0.378301
v 0.239446 5.353068 0.455438
v -0.000000 5.353068 0.533464
v 0.221955 1.237948 -0.002279
v 0.356506 1.237391 -0.272533
v 0.551842 1.237948 -0.002278
v 1.661633 4.431443 0.186734
v 1.693634 4.432909 -0.088465
v 1.602304 4.219967 0.080301
v -0.117869 2.829369 -0.410078
v 0.000000 2.829369 -0.410078
v 0.117869 2.829369 -0.410078
v -0.308386 2.829369 -0.409402
v 0.308386 2.829369 -0.409402
vt 0.741302 0.637674
vt 0.744956 0.654564
vt 0.724921 0.655565
vt 0.718929 0.643303
vt 0.918964 0.604600
vt 0.924823 0.603983
vt 0.944019 0.648558
vt 0.938551 0.649281
vt 0.922301 0.553582
vt 0.928411 0.553582
vt 0.938359 0.691314
vt 0.943889 0.690017
vt 0.744154 0.668810
vt 0.933198 0.650009
vt 0.932483 0.692631
vt 0.738584 0.621211
vt 0.916204 0.553587
vt 0.913071 0.605331
vt 0.707840 0.651665
vt 0.707578 0.647526
vt 0.706068 0.618722
vt 0.714000 0.676910
vt 0.700956 0.650085
vt 0.592786 0.641915
vt 0.528215 0.697970
vt 0.494712 0.651666
vt 0.561669 0.601539
vt 0.621623 0.581438
vt 0.621623 0.648273
vt 0.621623 0.721000
vt 0.568771 0.715040
vt 0.556115 0.551911
vt 0.555693 0.575808
vt 0.477130 0.611311
vt 0.466581 0.569961
vt 0.948100 0.646073
vt 0.970456 0.651772
vt 0.964425 0.664015
vt 0.944393 0.662951
vt 0.770542 0.612442
vt 0.750816 0.657061
vt 0.745350 0.656321
vt 0.764686 0.611807
vt 0.767366 0.561413
vt 0.761256 0.561394
vt 0.750876 0.699095
vt 0.745350 0.697780
vt 0.945151 0.677199
vt 0.756748 0.700430
vt 0.756167 0.657807
vt 0.950870 0.629619
vt 0.776433 0.613192
vt 0.773462 0.561437
vt 0.981794 0.656031
vt 0.981518 0.660169
vt 0.983394 0.627232
vt 0.975279 0.685394
vt 0.988407 0.658610
vt 0.650460 0.641915
vt 0.681577 0.601539
vt 0.748533 0.651666
vt 0.715031 0.697970
vt 0.674475 0.715040
vt 0.687131 0.551911
vt 0.776664 0.569961
vt 0.766115 0.611311
vt 0.687552 0.575808
vt 0.257002 0.631628
vt 0.225387 0.913608
vt 0.193038 0.913296
vt 0.215732 0.999725
vt 0.457306 0.912196
vt 0.459385 0.866287
vt 0.526893 0.876769
vt 0.519928 0.924390
vt 0.554476 0.880909
vt 0.546886 0.929745
vt 0.520351 0.815221
vt 0.487324 0.821234
vt 0.564684 0.815221
vt 0.473083 0.966830
vt 0.504434 0.982168
vt 0.537437 0.990551
vt 0.533261 0.915160
vt 0.491331 0.928823
vt 0.491331 0.874813
vt 0.533261 0.861150
vt 0.466581 0.951242
vt 0.257002 0.920467
vt 0.637567 0.940210
vt 0.574199 0.932824
vt 0.582014 0.885335
vt 0.649519 0.895835
vt 0.606925 0.828675
vt 0.636570 0.844428
vt 0.605954 0.987479
vt 0.571427 0.992579
vt 0.575191 0.874813
vt 0.575191 0.928823
vt 0.599941 0.951242
vt 0.019230 0.140012
vt 0.055327 0.000275
vt 0.377684 0.132935
vt 0.251550 0.197712
vt 0.240724 0.257247
vt 0.424198 0.316411
vt 0.254280 0.316073
vt 0.168082 0.360596
vt 0.128005 0.349406
vt 0.168082 0.208161
vt 0.079601 0.342677
vt 0.050652 0.305355
vt 0.003124 0.259929
vt 0.018531 0.491198
vt 0.251079 0.434423
vt 0.376955 0.499700
vt 0.054072 0.631078
vt 0.240490 0.374845
vt 0.136458 0.362188
vt 0.136458 0.209753
vt 0.176535 0.350998
vt 0.224939 0.344269
vt 0.253888 0.306946
vt 0.002903 0.371218
vt 0.000275 0.335074
vt 0.000275 0.315568
vt 0.000353 0.296062
vt 0.844441 0.187978
vt 0.904280 0.183263
vt 0.959442 0.361543
vt 0.844288 0.367591
vt 0.966841 0.449029
vt 0.732087 0.166956
vt 0.784257 0.182321
vt 0.742354 0.357921
vt 0.631455 0.324142
vt 0.735831 0.158501
vt 0.739574 0.150046
vt 0.788600 0.164472
vt 0.786429 0.173398
vt 0.845088 0.008384
vt 0.864604 0.006884
vt 0.899514 0.165398
vt 0.844471 0.169728
vt 0.802144 0.000275
vt 0.823218 0.006413
vt 0.901896 0.174330
vt 0.844455 0.178852
vt 0.695639 0.363769
vt 0.741981 0.372237
vt 0.748997 0.462773
vt 0.715734 0.462028
vt 0.724433 0.254312
vt 0.647228 0.215934
vt 0.848518 0.457615
vt 0.695735 0.461872
vt 0.547180 0.188064
vt 0.547275 0.367601
vt 0.432172 0.361519
vt 0.487368 0.183331
vt 0.424748 0.448966
vt 0.659493 0.167086
vt 0.760033 0.324237
vt 0.649170 0.357967
vt 0.607340 0.182428
vt 0.655753 0.158634
vt 0.605172 0.173509
vt 0.603004 0.164586
vt 0.652015 0.150181
vt 0.546590 0.008546
vt 0.547156 0.169821
vt 0.492137 0.165476
vt 0.527083 0.007040
vt 0.589518 0.000454
vt 0.568451 0.006583
vt 0.489753 0.174404
vt 0.547168 0.178941
vt 0.675745 0.462039
vt 0.642496 0.462773
vt 0.649538 0.372278
vt 0.580964 0.276072
vt 0.543019 0.457586
vt 0.897826 0.907436
vt 0.915185 0.877001
vt 0.962016 0.899378
vt 0.943282 0.932861
vt 0.820626 0.878212
vt 0.836659 0.914831
vt 0.786800 0.932173
vt 0.776121 0.900899
vt 0.712430 0.924416
vt 0.710194 0.910312
vt 0.837209 0.872365
vt 0.843706 0.861136
vt 0.766173 0.861136
vt 0.772847 0.971778
vt 0.814838 0.952519
vt 0.808670 0.971778
vt 0.836153 0.943851
vt 0.945432 0.861136
vt 0.964740 0.871732
vt 0.062443 0.845452
vt 0.098978 0.811243
vt 0.124891 0.841518
vt 0.081766 0.873867
vt 0.131436 0.810892
vt 0.082170 0.795162
vt 0.092716 0.761526
vt 0.143165 0.774824
vt 0.015364 0.774838
vt 0.019129 0.762463
vt 0.000275 0.870652
vt 0.005867 0.883848
vt 0.042436 0.809535
vt 0.079905 0.722113
vt 0.113707 0.722113
vt 0.119982 0.740524
vt 0.140769 0.747337
vt 0.133309 0.869116
vt 0.115809 0.883848
vn 0.2091 -0.5507 -0.8081
vn 0.1584 -0.5707 -0.8058
vn -0.0330 0.9994 0.0092
vn 0.0546 -0.4366 0.8980
vn -0.0738 -0.4648 0.8823
vn -0.1353 0.9906 0.0210
vn 0.0346 -0.6116 -0.7904
vn -0.3312 -0.6692 -0.6651
vn 0.1894 0.9818 -0.0168
vn 0.2470 -0.3794 0.8916
vn -0.9418 -0.3185 0.1078
vn -0.2036 0.9786 0.0289
vn -0.0319 -0.4565 0.8892
vn -0.9645 -0.2544 -0.0703
vn -0.5884 -0.8086 -0.0000
vn -0.1447 -0.8843 0.4440
vn -0.3098 0.0000 0.9508
vn -0.6713 0.0000 0.7411
vn -0.2024 -0.0364 -0.9786
vn -0.0682 -0.8318 -0.5509
vn -0.6821 -0.0931 -0.7253
vn -0.3375 -0.8378 -0.4293
vn -0.0331 0.9994 0.0092
vn -0.2091 -0.5507 -0.8081
vn -0.1584 -0.5707 -0.8058
vn 0.0330 0.9994 0.0092
vn -0.0546 -0.4366 0.8980
vn 0.0738 -0.4648 0.8823
vn 0.1353 0.9906 0.0210
vn -0.0346 -0.6116 -0.7904
vn 0.3312 -0.6692 -0.6651
vn -0.1894 0.9818 -0.0168
vn -0.2470 -0.3794 0.8916
vn 0.9418 -0.3185 0.1078
vn 0.2036 0.9786 0.0289
vn 0.0319 -0.4565 0.8892
vn 0.9645 -0.2544 -0.0703
vn 0.5884 -0.8086 -0.0000
vn 0.1447 -0.8843 0.4440
vn 0.3098 0.0000 0.9508
vn 0.6713 0.0000 0.7411
vn 0.2024 -0.0364 -0.9786
vn 0.0682 -0.8318 -0.5509
vn 0.6821 -0.0931 -0.7253
vn 0.3375 -0.8378 -0.4292
vn 0.0331 0.9994 0.0092
vn -0.2366 0.0015 0.9716
vn -0.1375 0.8140 0.5644
vn -0.8473 0.5251 -0.0791
vn -0.0398 0.9989 0.0231
vn -0.6076 0.4253 0.6708
vn -0.1692 0.4759 0.8631
vn -0.6688 0.3284 -0.6670
vn -0.1674 0.3897 -0.9056
vn 0.0000 1.0000 0.0000
vn 0.2366 0.0015 0.9716
vn 0.1375 0.8140 0.5644
vn 0.8473 0.5251 -0.0791
vn 0.0398 0.9989 0.0231
vn 0.6076 0.4253 0.6708
vn 0.1692 0.4759 0.8631
vn 0.6688 0.3284 -0.6670
vn 0.1674 0.3897 -0.9056
vn -0.2821 -0.0293 0.9589
vn -0.3923 0.8989 -0.1953
vn 0.0000 0.7804 -0.6253
vn -0.1252 0.8126 0.5693
vn 0.0807 -0.4299 0.8992
vn 0.1804 -0.5623 -0.8070
vn -0.0109 0.9999 0.0066
vn -0.8580 -0.0769 -0.5078
vn 0.2821 -0.0293 0.9589
vn 0.3923 0.8989 -0.1953
vn 0.1252 0.8126 0.5693
vn -0.0807 -0.4299 0.8992
vn -0.1804 -0.5623 -0.8070
vn 0.0109 0.9999 0.0066
vn 0.8580 -0.0769 -0.5078
vn 0.0000 -0.0392 -0.9992
vn 0.0035 -0.0400 -0.9992
vn -0.0035 -0.0400 -0.9992
vn -0.1667 -0.1224 0.9784
vn -0.2516 -0.1218 0.9601
vn 0.9082 -0.1142 -0.4028
vn -0.7764 -0.0125 -0.6301
vn 0.8865 -0.1396 -0.4411
vn 0.0000 -0.0540 0.9985
vn 0.8906 -0.1017 -0.4432
vn -0.8398 -0.0233 -0.5423
vn -0.8080 -0.0067 -0.5891
vn 0.8791 -0.4762 0.0184
vn -0.7585 0.0000 -0.6517
vn -0.3396 0.0000 0.9406
vn -0.8130 -0.0065 -0.5823
vn 0.1667 -0.1224 0.9784
vn 0.2516 -0.1218 0.9601
vn -0.9082 -0.1142 -0.4028
vn 0.7764 -0.0125 -0.6301
vn -0.8865 -0.1396 -0.4411
vn -0.8906 -0.1017 -0.4432
vn 0.8398 -0.0233 -0.5423
vn 0.8080 -0.0067 -0.5891
vn -0.8791 -0.4762 0.0184
vn 0.7585 0.0000 -0.6517
vn 0.3396 0.0000 0.9406
vn 0.8130 -0.0065 -0.5823
vn -0.8110 -0.1042 -0.5758
vn 0.8110 -0.1042 -0.5758
vn -0.9149 0.0089 -0.4035
vn 0.9149 0.0089 -0.4035
vn 0.9532 0.0142 0.3020
vn -0.9532 0.0142 0.3020
vn 0.0000 -1.0000 -0.0000
vn 0.0000 0.4834 0.8754
vn -0.0000 0.9494 0.3140
vn 0.9027 0.1562 -0.4009
vn -0.9027 0.1562 -0.4009
usemtl None
s off
f 39/1/9 40/2/9 47/3/9 49/4/9
f 67/5/10 43/6/10 42/7/10 68/8/10
f 66/9/11 41/10/11 43/6/11 67/5/11
f 66/11/12 68/8/12 42/7/12 41/12/12
f 38/13/13 40/2/13 46/14/13 44/15/13
f 38/16/14 44/17/14 45/18/14 39/1/14
f 39/1/15 45/18/15 46/14/15 40/2/15
f 49/4/16 47/3/16 50/19/16 52/20/16
f 38/16/17 39/1/17 49/4/17 48/21/17
f 40/2/18 38/13/18 48/22/18 47/3/18
f 50/19/19 51/23/19 52/20/19
f 48/21/20 49/4/20 52/20/20 51/23/20
f 47/3/21 48/22/21 51/23/21 50/19/21
f 55/24/22 53/25/22 56/26/22 54/27/22
f 97/28/23 55/24/23 54/27/23
f 55/24/24 97/28/24 117/29/24
f 55/24/25 117/29/25 119/30/25 57/31/25
f 55/24/26 57/31/26 53/25/26
f 125/32/27 61/33/27 60/34/27 124/35/27
f 97/28/28 61/33/28 125/32/28
f 60/34/29 61/33/29 54/27/29 56/26/29
f 61/33/30 97/28/30 54/27/30
f 44/15/12 46/14/12 68/8/12 66/11/12
f 44/17/31 66/9/31 67/5/31 45/18/31
f 45/18/10 67/5/10 68/8/10 46/14/10
f 99/36/32 109/37/32 107/38/32 100/39/32
f 134/40/33 135/41/33 102/42/33 103/43/33
f 133/44/34 134/40/34 103/43/34 101/45/34
f 133/46/35 101/47/35 102/42/35 135/41/35
f 98/48/36 104/49/36 106/50/36 100/39/36
f 98/51/37 99/36/37 105/52/37 104/53/37
f 99/36/38 100/39/38 106/50/38 105/52/38
f 109/37/39 112/54/39 110/55/39 107/38/39
f 98/51/40 108/56/40 109/37/40 99/36/40
f 100/39/41 107/38/41 108/57/41 98/48/41
f 110/55/42 112/54/42 111/58/42
f 108/56/43 111/58/43 112/54/43 109/37/43
f 107/38/44 110/55/44 111/58/44 108/57/44
f 115/59/45 114/60/45 116/61/45 113/62/45
f 97/28/46 114/60/46 115/59/46
f 115/59/47 117/29/47 97/28/47
f 115/59/48 118/63/48 119/30/48 117/29/48
f 115/59/49 113/62/49 118/63/49
f 125/64/50 124/65/50 126/66/50 127/67/50
f 97/28/51 125/64/51 127/67/51
f 126/66/52 116/61/52 114/60/52 127/67/52
f 127/67/53 114/60/53 97/28/53
f 104/49/35 133/46/35 135/41/35 106/50/35
f 104/53/54 105/52/54 134/40/54 133/44/54
f 105/52/33 106/50/33 135/41/33 134/40/33
f 90/68/55 95/69/55 37/70/55
f 37/70/56 95/69/56 97/71/56
f 56/72/57 53/73/57 58/74/57 59/75/57
f 59/75/58 58/74/58 122/76/58 123/77/58
f 57/78/59 58/74/59 53/79/59
f 119/80/60 122/76/60 58/74/60 57/78/60
f 56/81/61 59/75/61 60/82/61
f 60/82/62 59/75/62 123/77/62 124/83/62
f 119/84/63 57/85/63 62/86/63 129/87/63
f 62/86/63 57/85/63 53/88/63
f 90/68/64 94/89/64 95/69/64
f 94/89/65 97/71/65 95/69/65
f 116/90/66 121/91/66 120/92/66 113/93/66
f 121/91/67 123/77/67 122/76/67 120/92/67
f 118/94/68 113/95/68 120/92/68
f 119/80/69 118/94/69 120/92/69 122/76/69
f 116/96/70 126/97/70 121/91/70
f 126/97/71 124/83/71 123/77/71 121/91/71
f 119/84/63 129/87/63 128/98/63 118/99/63
f 128/98/63 113/100/63 118/99/63
f 34/101/72 90/102/72 37/103/72 35/104/72
f 36/105/73 35/104/73 97/106/73
f 96/107/74 36/105/74 97/106/74
f 35/104/75 37/103/75 97/106/75
f 41/108/76 42/109/76 35/110/76
f 42/109/77 43/111/77 35/110/77
f 43/111/78 41/112/78 35/110/78
f 35/104/79 36/105/79 139/113/79 34/101/79
f 89/114/80 92/115/80 94/116/80 90/117/80
f 93/118/81 97/106/81 92/115/81
f 96/107/74 97/106/74 93/118/74
f 92/115/82 97/106/82 94/116/82
f 101/119/83 92/120/83 102/121/83
f 102/121/84 92/120/84 103/122/84
f 103/122/85 92/120/85 101/123/85
f 92/115/86 89/114/86 140/124/86 93/118/86
f 138/125/87 137/126/87 96/107/87 93/118/87
f 140/124/88 138/125/88 93/118/88
f 137/126/87 136/127/87 36/105/87 96/107/87
f 136/127/89 139/113/89 36/105/89
usemtl Material
f 29/128/90 28/129/90 82/130/90 26/131/90
f 26/131/91 82/130/91 90/132/91
f 28/133/92 30/134/92 27/135/92 82/136/92
f 30/134/93 29/128/93 26/131/93 27/135/93
f 63/137/94 32/138/94 33/139/94 64/140/94
f 23/141/95 25/142/95 32/143/95 31/144/95
f 25/145/96 24/146/96 33/139/96 32/138/96
f 24/146/97 23/141/97 31/144/97 33/139/97
f 63/147/95 28/129/95 29/128/95 65/148/95
f 64/140/98 65/148/98 29/128/98 30/134/98
f 91/149/89 27/150/89 139/151/89 136/152/89
f 82/153/99 27/150/99 91/149/99 90/154/99
f 26/131/100 34/155/100 27/150/100
f 91/149/87 136/152/87 137/156/87
f 34/155/101 26/131/101 90/132/101
f 33/139/102 31/144/102 65/148/102 64/140/102
f 32/143/95 63/147/95 65/148/95 31/144/95
f 28/133/94 63/137/94 64/140/94 30/134/94
f 84/157/103 80/158/103 82/159/103 83/160/103
f 80/158/104 90/161/104 82/159/104
f 83/162/105 82/163/105 81/164/105 85/165/105
f 85/165/106 81/164/106 80/158/106 84/157/106
f 130/166/107 131/167/107 88/168/107 87/169/107
f 77/170/95 86/171/95 87/172/95 79/173/95
f 79/174/108 87/169/108 88/168/108 78/175/108
f 78/175/109 88/168/109 86/171/109 77/170/109
f 130/176/95 132/177/95 84/157/95 83/160/95
f 131/167/110 85/165/110 84/157/110 132/177/110
f 91/149/88 138/178/88 140/179/88 81/180/88
f 82/181/111 90/154/111 91/149/111 81/180/111
f 80/158/112 81/180/112 89/182/112
f 91/149/87 137/156/87 138/178/87
f 89/182/113 90/161/113 80/158/113
f 88/168/114 131/167/114 132/177/114 86/171/114
f 87/172/95 86/171/95 132/177/95 130/176/95
f 83/162/107 85/165/107 131/167/107 130/166/107
f 34/155/115 139/151/115 27/150/115
f 140/179/116 89/182/116 81/180/116
usemtl None
f 15/183/117 16/184/117 18/185/117 17/186/117
f 17/187/118 18/188/118 22/189/118 21/190/118
f 21/190/119 22/189/119 20/191/119 19/192/119
f 19/193/120 20/194/120 16/184/120 15/183/120
f 17/187/121 21/190/121 19/192/121 15/195/121
f 16/196/122 22/189/122 25/197/122 23/198/122
f 20/191/123 22/189/123 16/196/123
f 22/189/124 18/188/124 24/199/124 25/197/124
f 18/185/125 16/184/125 23/200/125 24/201/125
f 69/202/118 71/203/118 72/204/118 70/205/118
f 71/206/117 75/207/117 76/208/117 72/209/117
f 75/207/120 73/210/120 74/211/120 76/208/120
f 73/212/119 69/202/119 70/205/119 74/213/119
f 71/203/121 69/202/121 73/212/121 75/214/121
f 70/215/122 77/216/122 79/217/122 76/208/122
f 74/211/123 70/215/123 76/208/123
f 76/208/125 79/217/125 78/218/125 72/209/125
f 72/204/124 78/219/124 77/220/124 70/205/124
