# Blender v2.79 (sub 0) OBJ File: 'Lowest_Poly_Security_Guard.blend'
# www.blender.org
mtllib Lowest_Poly_Security_Guard.mtl
o Cylinder
v -2.783264 4.100321 -0.037867
v -2.783264 5.220144 -0.037867
v -2.783264 4.100321 0.052306
v -2.783264 5.220144 0.052306
v -2.861356 4.100321 0.007219
v -2.861356 5.220144 0.007219
v -2.783264 4.385391 -0.037867
v -2.783264 4.425972 0.052306
v -2.861356 4.385391 0.007219
v -2.783264 4.466554 -0.037867
v -2.861356 4.466554 0.007219
v -2.628149 4.425972 0.052306
v -2.628149 4.385391 -0.037867
v -2.628149 4.466554 -0.037867
vn 1.0000 0.0000 0.0000
vn -0.5000 0.0000 0.8660
vn 0.0000 1.0000 0.0000
vn -0.5000 0.0000 -0.8660
vn 0.0000 -1.0000 0.0000
vn 0.0000 0.0000 -1.0000
vn -0.0000 0.9119 0.4104
vn -0.0000 -0.9119 0.4104
usemtl Material.006
s off
f 10//1 2//1 4//1 8//1
f 8//2 4//2 6//2 11//2
f 4//3 2//3 6//3
f 11//4 6//4 2//4 10//4
f 1//5 3//5 5//5
f 5//4 9//4 7//4 1//4
f 3//2 8//2 9//2 5//2
f 1//1 7//1 8//1 3//1
f 9//4 11//4 10//4 7//4
f 8//2 11//2 9//2
f 7//6 10//6 14//6 13//6
f 13//1 14//1 12//1
f 10//7 8//7 12//7 14//7
f 8//8 7//8 13//8 12//8
o Cube_Cube.001
v -0.539092 -0.095449 0.034610
v -0.535014 0.104593 0.034610
v -0.417291 -0.095449 -0.236734
v -0.417291 0.123654 -0.236734
v -0.417291 -0.095449 0.415530
v -0.417291 -0.021366 0.415530
v -0.295490 -0.095449 0.034610
v -0.299568 0.104593 0.034610
v -0.473346 0.266583 -0.054834
v -0.417291 0.266351 -0.167423
v -0.361236 0.266583 -0.054834
v -0.638741 2.313296 0.055902
v -0.256546 2.312378 -0.388895
v -0.212367 1.289939 0.000534
v -0.556044 1.289939 0.000534
v -0.351119 1.289364 -0.278159
v -0.547641 1.185957 -0.005091
v -0.231543 1.185957 -0.005091
v -0.361892 1.185417 -0.266907
v -0.638741 2.829369 0.055902
v -0.761697 4.442465 0.112231
v -0.470136 4.442465 -0.473388
v -0.178576 4.442465 0.240522
v -2.633485 4.305117 0.043631
v -2.642819 4.305544 -0.036639
v -2.616180 4.243433 0.012587
v -1.629065 4.432533 0.185284
v -1.571303 4.226647 0.081664
v -1.660219 4.433961 -0.082641
v -1.694202 4.430353 0.188183
v -1.727048 4.431858 -0.094289
v -1.633304 4.213288 0.078937
v -2.738785 4.184092 0.021302
v -2.780976 4.334480 0.096990
v -2.803732 4.335522 -0.098713
v -2.955816 4.260347 0.052662
v -2.966028 4.296747 0.070982
v -2.971536 4.296999 0.023613
v -0.380783 5.353068 0.018980
v -0.239446 4.898214 -0.273809
v -0.239446 4.898214 0.147006
v -0.331442 5.353068 -0.236883
v -0.239446 5.353068 0.147006
v -0.158643 5.670409 0.018980
v -0.158643 5.670409 -0.253908
v -0.190391 5.353068 -0.378301
v -0.119723 4.903524 -0.378301
v -0.239446 5.353068 0.455438
v -0.221955 1.237948 -0.002279
v -0.356506 1.237391 -0.272533
v -0.551842 1.237948 -0.002279
v -1.661633 4.431443 0.186734
v -1.693634 4.432909 -0.088465
v -1.602304 4.219967 0.080301
v 0.539092 -0.095449 0.034610
v 0.535014 0.104593 0.034610
v 0.417291 -0.095449 -0.236734
v 0.417291 0.123654 -0.236734
v 0.417291 -0.095449 0.415530
v 0.417291 -0.021366 0.415530
v 0.295490 -0.095449 0.034610
v 0.299568 0.104593 0.034610
v 0.473346 0.266583 -0.054834
v 0.417291 0.266351 -0.167423
v 0.361236 0.266583 -0.054834
v 0.638741 2.313296 0.055902
v 0.256546 2.312378 -0.388895
v -0.000000 2.313296 0.223297
v 0.212367 1.289939 0.000534
v 0.556044 1.289939 0.000534
v 0.351119 1.289364 -0.278159
v 0.547641 1.185957 -0.005091
v 0.231543 1.185957 -0.005091
v 0.361892 1.185417 -0.266907
v 0.638741 2.829369 0.055902
v -0.000000 2.812057 0.286563
v 0.000000 2.289626 -0.388895
v 0.761697 4.442465 0.112231
v 0.470136 4.442465 -0.473388
v 0.178575 4.442465 0.240522
v -0.000000 4.442465 0.284014
v 0.000000 4.442465 -0.473388
v 0.000000 4.723982 -0.122017
v 2.633485 4.305117 0.043631
v 2.642819 4.305544 -0.036638
v 2.616180 4.243433 0.012587
v 1.629065 4.432533 0.185285
v 1.571303 4.226647 0.081664
v 1.660219 4.433961 -0.082641
v 1.694202 4.430353 0.188183
v 1.727048 4.431858 -0.094289
v 1.633304 4.213288 0.078937
v 2.738785 4.184092 0.021302
v 2.780976 4.334480 0.096991
v 2.803732 4.335522 -0.098713
v 2.955816 4.260347 0.052663
v 2.966028 4.296747 0.070983
v 2.971536 4.296999 0.023614
v 0.380783 5.353068 0.018980
v 0.239446 4.898214 -0.273809
v 0.239446 4.898214 0.147006
v 0.331442 5.353068 -0.236883
v -0.000000 4.898214 0.225032
v 0.239446 5.353068 0.147006
v -0.000000 5.353068 0.225032
v 0.158643 5.670409 0.018980
v 0.158643 5.670409 -0.253908
v -0.000000 5.670409 0.018980
v 0.000000 5.683458 -0.271298
v 0.000000 5.353068 -0.419798
v 0.000000 4.908834 -0.401151
v 0.190391 5.353068 -0.378301
v 0.119723 4.903524 -0.378301
v 0.239446 5.353068 0.455438
v -0.000000 5.353068 0.533464
v 0.221955 1.237948 -0.002279
v 0.356506 1.237391 -0.272533
v 0.551842 1.237948 -0.002278
v 1.661633 4.431443 0.186734
v 1.693634 4.432909 -0.088465
v 1.602304 4.219967 0.080301
v -0.117869 2.829369 -0.410078
v 0.000000 2.829369 -0.410078
v 0.117869 2.829369 -0.410078
v -0.308386 2.829369 -0.409402
v 0.308386 2.829369 -0.409402
vn 0.2091 -0.5507 -0.8081
vn 0.1584 -0.5707 -0.8058
vn -0.0330 0.9994 0.0092
vn 0.0546 -0.4366 0.8980
vn -0.0738 -0.4648 0.8823
vn -0.1353 0.9906 0.0210
vn 0.0346 -0.6116 -0.7904
vn -0.3312 -0.6692 -0.6651
vn 0.1894 0.9818 -0.0168
vn 0.2470 -0.3794 0.8916
vn -0.9418 -0.3185 0.1078
vn -0.2036 0.9786 0.0289
vn -0.0319 -0.4565 0.8892
vn -0.9645 -0.2544 -0.0703
vn -0.5884 -0.8086 -0.0000
vn -0.1447 -0.8843 0.4440
vn -0.3098 0.0000 0.9508
vn -0.6713 0.0000 0.7411
vn -0.2024 -0.0364 -0.9786
vn -0.0682 -0.8318 -0.5509
vn -0.6821 -0.0931 -0.7253
vn -0.3375 -0.8378 -0.4293
vn -0.0331 0.9994 0.0092
vn -0.2091 -0.5507 -0.8081
vn -0.1584 -0.5707 -0.8058
vn 0.0330 0.9994 0.0092
vn -0.0546 -0.4366 0.8980
vn 0.0738 -0.4648 0.8823
vn 0.1353 0.9906 0.0210
vn -0.0346 -0.6116 -0.7904
vn 0.3312 -0.6692 -0.6651
vn -0.1894 0.9818 -0.0168
vn -0.2470 -0.3794 0.8916
vn 0.9418 -0.3185 0.1078
vn 0.2036 0.9786 0.0289
vn 0.0319 -0.4565 0.8892
vn 0.9645 -0.2544 -0.0703
vn 0.5884 -0.8086 -0.0000
vn 0.1447 -0.8843 0.4440
vn 0.3098 0.0000 0.9508
vn 0.6713 0.0000 0.7411
vn 0.2024 -0.0364 -0.9786
vn 0.0682 -0.8318 -0.5509
vn 0.6821 -0.0931 -0.7253
vn 0.3375 -0.8378 -0.4292
vn 0.0331 0.9994 0.0092
vn -0.2366 0.0015 0.9716
vn -0.1375 0.8140 0.5644
vn -0.8473 0.5251 -0.0791
vn -0.0398 0.9989 0.0231
vn -0.6076 0.4253 0.6708
vn -0.1692 0.4759 0.8631
vn -0.6688 0.3284 -0.6670
vn -0.1674 0.3897 -0.9056
vn 0.0000 1.0000 0.0000
vn 0.2366 0.0015 0.9716
vn 0.1375 0.8140 0.5644
vn 0.8473 0.5251 -0.0791
vn 0.0398 0.9989 0.0231
vn 0.6076 0.4253 0.6708
vn 0.1692 0.4759 0.8631
vn 0.6688 0.3284 -0.6670
vn 0.1674 0.3897 -0.9056
vn -0.2821 -0.0293 0.9589
vn -0.3923 0.8989 -0.1953
vn 0.0000 0.7804 -0.6253
vn -0.1252 0.8126 0.5693
vn 0.0807 -0.4299 0.8992
vn 0.1804 -0.5623 -0.8070
vn -0.0109 0.9999 0.0066
vn -0.8580 -0.0769 -0.5078
vn 0.2821 -0.0293 0.9589
vn 0.3923 0.8989 -0.1953
vn 0.1252 0.8126 0.5693
vn -0.0807 -0.4299 0.8992
vn -0.1804 -0.5623 -0.8070
vn 0.0109 0.9999 0.0066
vn 0.8580 -0.0769 -0.5078
vn 0.0000 -0.0392 -0.9992
vn 0.0035 -0.0400 -0.9992
vn -0.0035 -0.0400 -0.9992
vn -0.1667 -0.1224 0.9784
vn -0.2516 -0.1218 0.9601
vn 0.9082 -0.1142 -0.4028
vn -0.7764 -0.0125 -0.6301
vn 0.8865 -0.1396 -0.4411
vn 0.0000 -0.0540 0.9985
vn 0.8906 -0.1017 -0.4432
vn -0.8398 -0.0233 -0.5423
vn -0.8080 -0.0067 -0.5891
vn 0.8791 -0.4762 0.0184
vn -0.7585 0.0000 -0.6517
vn -0.3396 0.0000 0.9406
vn -0.8130 -0.0065 -0.5823
vn 0.1667 -0.1224 0.9784
vn 0.2516 -0.1218 0.9601
vn -0.9082 -0.1142 -0.4028
vn 0.7764 -0.0125 -0.6301
vn -0.8865 -0.1396 -0.4411
vn -0.8906 -0.1017 -0.4432
vn 0.8398 -0.0233 -0.5423
vn 0.8080 -0.0067 -0.5891
vn -0.8791 -0.4762 0.0184
vn 0.7585 0.0000 -0.6517
vn 0.3396 0.0000 0.9406
vn 0.8130 -0.0065 -0.5823
vn -0.8110 -0.1042 -0.5758
vn 0.8110 -0.1042 -0.5758
vn -0.9149 0.0089 -0.4035
vn 0.9149 0.0089 -0.4035
vn 0.9532 0.0142 0.3020
vn -0.9532 0.0142 0.3020
vn 0.0000 -1.0000 -0.0000
vn 0.0000 0.4834 0.8754
vn -0.0000 0.9494 0.3140
vn 0.9027 0.1562 -0.4009
vn -0.9027 0.1562 -0.4009
usemtl Material.001
s off
f 39//9 40//9 47//9 49//9
f 67//10 43//10 42//10 68//10
f 66//11 41//11 43//11 67//11
f 66//12 68//12 42//12 41//12
f 38//13 40//13 46//13 44//13
f 38//14 44//14 45//14 39//14
f 39//15 45//15 46//15 40//15
f 49//16 47//16 50//16 52//16
f 38//17 39//17 49//17 48//17
f 40//18 38//18 48//18 47//18
f 50//19 51//19 52//19
f 48//20 49//20 52//20 51//20
f 47//21 48//21 51//21 50//21
f 55//22 53//22 56//22 54//22
f 97//23 55//23 54//23
f 55//24 97//24 117//24
f 55//25 117//25 119//25 57//25
f 55//26 57//26 53//26
f 125//27 61//27 60//27 124//27
f 97//28 61//28 125//28
f 60//29 61//29 54//29 56//29
f 61//30 97//30 54//30
f 44//12 46//12 68//12 66//12
f 44//31 66//31 67//31 45//31
f 45//10 67//10 68//10 46//10
f 99//32 109//32 107//32 100//32
f 134//33 135//33 102//33 103//33
f 133//34 134//34 103//34 101//34
f 133//35 101//35 102//35 135//35
f 98//36 104//36 106//36 100//36
f 98//37 99//37 105//37 104//37
f 99//38 100//38 106//38 105//38
f 109//39 112//39 110//39 107//39
f 98//40 108//40 109//40 99//40
f 100//41 107//41 108//41 98//41
f 110//42 112//42 111//42
f 108//43 111//43 112//43 109//43
f 107//44 110//44 111//44 108//44
f 115//45 114//45 116//45 113//45
f 97//46 114//46 115//46
f 115//47 117//47 97//47
f 115//48 118//48 119//48 117//48
f 115//49 113//49 118//49
f 125//50 124//50 126//50 127//50
f 97//51 125//51 127//51
f 126//52 116//52 114//52 127//52
f 127//53 114//53 97//53
f 104//35 133//35 135//35 106//35
f 104//54 105//54 134//54 133//54
f 105//33 106//33 135//33 134//33
usemtl Material.002
f 90//55 95//55 37//55
f 37//56 95//56 97//56
f 56//57 53//57 58//57 59//57
f 59//58 58//58 122//58 123//58
f 57//59 58//59 53//59
f 119//60 122//60 58//60 57//60
f 56//61 59//61 60//61
f 60//62 59//62 123//62 124//62
f 119//63 57//63 62//63 129//63
f 62//63 57//63 53//63
f 90//64 94//64 95//64
f 94//65 97//65 95//65
f 116//66 121//66 120//66 113//66
f 121//67 123//67 122//67 120//67
f 118//68 113//68 120//68
f 119//69 118//69 120//69 122//69
f 116//70 126//70 121//70
f 126//71 124//71 123//71 121//71
f 119//63 129//63 128//63 118//63
f 128//63 113//63 118//63
usemtl Material.003
f 34//72 90//72 37//72 35//72
f 36//73 35//73 97//73
f 96//74 36//74 97//74
f 35//75 37//75 97//75
f 41//76 42//76 35//76
f 42//77 43//77 35//77
f 43//78 41//78 35//78
f 35//79 36//79 139//79 34//79
f 89//80 92//80 94//80 90//80
f 93//81 97//81 92//81
f 96//74 97//74 93//74
f 92//82 97//82 94//82
f 101//83 92//83 102//83
f 102//84 92//84 103//84
f 103//85 92//85 101//85
f 92//86 89//86 140//86 93//86
f 138//87 137//87 96//87 93//87
f 140//88 138//88 93//88
f 137//87 136//87 36//87 96//87
f 136//89 139//89 36//89
usemtl Material.004
f 29//90 28//90 82//90 26//90
f 26//91 82//91 90//91
f 28//92 30//92 27//92 82//92
f 30//93 29//93 26//93 27//93
f 63//94 32//94 33//94 64//94
f 23//95 25//95 32//95 31//95
f 25//96 24//96 33//96 32//96
f 24//97 23//97 31//97 33//97
f 63//95 28//95 29//95 65//95
f 64//98 65//98 29//98 30//98
f 91//89 27//89 139//89 136//89
f 82//99 27//99 91//99 90//99
f 26//100 34//100 27//100
f 91//87 136//87 137//87
f 34//101 26//101 90//101
f 33//102 31//102 65//102 64//102
f 32//95 63//95 65//95 31//95
f 28//94 63//94 64//94 30//94
f 84//103 80//103 82//103 83//103
f 80//104 90//104 82//104
f 83//105 82//105 81//105 85//105
f 85//106 81//106 80//106 84//106
f 130//107 131//107 88//107 87//107
f 77//95 86//95 87//95 79//95
f 79//108 87//108 88//108 78//108
f 78//109 88//109 86//109 77//109
f 130//95 132//95 84//95 83//95
f 131//110 85//110 84//110 132//110
f 91//88 138//88 140//88 81//88
f 82//111 90//111 91//111 81//111
f 80//112 81//112 89//112
f 91//87 137//87 138//87
f 89//113 90//113 80//113
f 88//114 131//114 132//114 86//114
f 87//95 86//95 132//95 130//95
f 83//107 85//107 131//107 130//107
f 34//115 139//115 27//115
f 140//116 89//116 81//116
usemtl Material.005
f 15//117 16//117 18//117 17//117
f 17//118 18//118 22//118 21//118
f 21//119 22//119 20//119 19//119
f 19//120 20//120 16//120 15//120
f 17//121 21//121 19//121 15//121
f 16//122 22//122 25//122 23//122
f 20//123 22//123 16//123
f 22//124 18//124 24//124 25//124
f 18//125 16//125 23//125 24//125
f 69//118 71//118 72//118 70//118
f 71//117 75//117 76//117 72//117
f 75//120 73//120 74//120 76//120
f 73//119 69//119 70//119 74//119
f 71//121 69//121 73//121 75//121
f 70//122 77//122 79//122 76//122
f 74//123 70//123 76//123
f 76//125 79//125 78//125 72//125
f 72//124 78//124 77//124 70//124
