# Blender v2.79 (sub 0) OBJ File: 'Cupboard.blend'
# www.blender.org
mtllib Cupboard.mtl
o Cube.007_Cube.009
v -0.332020 -2.179039 0.839342
v -0.332020 -0.782307 0.839342
v -0.332020 -2.179039 0.348063
v -0.332020 -0.782307 0.348063
v 0.793066 -2.179039 0.839342
v 0.793066 -0.782307 0.839342
v 0.793066 -2.179039 0.348063
v 0.793066 -0.782307 0.348063
vn -1.0000 0.0000 0.0000
vn 0.0000 0.0000 -1.0000
vn 1.0000 0.0000 0.0000
vn 0.0000 0.0000 1.0000
vn 0.0000 -1.0000 0.0000
vn 0.0000 1.0000 0.0000
usemtl None
s off
f 1//1 2//1 4//1 3//1
f 3//2 4//2 8//2 7//2
f 7//3 8//3 6//3 5//3
f 5//4 6//4 2//4 1//4
f 3//5 7//5 5//5 1//5
f 8//6 4//6 2//6 6//6
o Cube.006_Cube.008
v -0.332020 -2.167146 -0.243992
v -0.332020 -0.896918 0.336852
v -0.332020 -1.962843 -0.690776
v -0.332020 -0.692614 -0.109932
v 0.793066 -2.167146 -0.243992
v 0.793066 -0.896918 0.336852
v 0.793066 -1.962843 -0.690776
v 0.793066 -0.692614 -0.109932
vn -1.0000 0.0000 0.0000
vn 0.0000 0.4159 -0.9094
vn 1.0000 0.0000 0.0000
vn 0.0000 -0.4159 0.9094
vn 0.0000 -0.9094 -0.4159
vn 0.0000 0.9094 0.4159
usemtl None
s off
f 9//7 10//7 12//7 11//7
f 11//8 12//8 16//8 15//8
f 15//9 16//9 14//9 13//9
f 13//10 14//10 10//10 9//10
f 11//11 15//11 13//11 9//11
f 16//12 12//12 10//12 14//12
o Cube.005_Cube.007
v 0.461697 -0.507754 0.523702
v 0.461697 -0.091106 0.523702
v 0.176421 -0.507754 0.220036
v 0.176421 -0.091106 0.220036
v 0.765364 -0.507754 0.238426
v 0.765364 -0.091106 0.238426
v 0.480088 -0.507754 -0.065240
v 0.480088 -0.091106 -0.065240
vn -0.7288 0.0000 0.6847
vn -0.6847 0.0000 -0.7288
vn 0.7288 0.0000 -0.6847
vn 0.6847 0.0000 0.7288
vn 0.0000 -1.0000 0.0000
vn 0.0000 1.0000 0.0000
usemtl None
s off
f 17//13 18//13 20//13 19//13
f 19//14 20//14 24//14 23//14
f 23//15 24//15 22//15 21//15
f 21//16 22//16 18//16 17//16
f 19//17 23//17 21//17 17//17
f 24//18 20//18 18//18 22//18
o Cylinder.002
v 0.221658 -0.493749 -0.496505
v 0.221658 -0.069289 -0.496505
v 0.310588 -0.493749 -0.459669
v 0.310588 -0.069289 -0.459669
v 0.347424 -0.493749 -0.370739
v 0.347424 -0.069289 -0.370739
v 0.310588 -0.493749 -0.281809
v 0.310588 -0.069289 -0.281809
v 0.221658 -0.493749 -0.244973
v 0.221658 -0.069289 -0.244973
v 0.132728 -0.493749 -0.281809
v 0.132728 -0.069289 -0.281809
v 0.095891 -0.493749 -0.370739
v 0.095891 -0.069289 -0.370739
v 0.132728 -0.493749 -0.459669
v 0.132728 -0.069289 -0.459669
v 0.254637 0.100172 -0.403718
v 0.221658 0.100172 -0.417379
v 0.268298 0.100172 -0.370739
v 0.254637 0.100172 -0.337759
v 0.221658 0.100172 -0.324099
v 0.188678 0.100172 -0.337759
v 0.175018 0.100172 -0.370739
v 0.188678 0.100172 -0.403718
v 0.275998 0.182064 -0.425080
v 0.221658 0.182064 -0.447588
v 0.298507 0.182064 -0.370739
v 0.275998 0.182064 -0.316398
v 0.221658 0.182064 -0.293890
v 0.167317 0.182064 -0.316398
v 0.144808 0.182064 -0.370739
v 0.167317 0.182064 -0.425080
vn 0.3827 0.0000 -0.9239
vn 0.9239 0.0000 -0.3827
vn 0.9239 0.0000 0.3827
vn 0.3827 0.0000 0.9239
vn -0.3827 0.0000 0.9239
vn -0.9239 0.0000 0.3827
vn 0.3514 0.3961 0.8483
vn -0.9239 0.0000 -0.3827
vn -0.3827 0.0000 -0.9239
vn 0.0000 -1.0000 0.0000
vn 0.3622 -0.3226 -0.8745
vn -0.8483 0.3961 -0.3514
vn 0.8483 0.3961 -0.3514
vn -0.3514 0.3961 0.8483
vn -0.3514 0.3961 -0.8483
vn 0.3514 0.3961 -0.8483
vn 0.8483 0.3961 0.3514
vn -0.8483 0.3961 0.3514
vn 0.0000 1.0000 0.0000
vn -0.3622 -0.3226 -0.8745
vn -0.8745 -0.3226 0.3622
vn 0.3622 -0.3226 0.8745
vn 0.8745 -0.3226 -0.3622
vn -0.8745 -0.3226 -0.3622
vn -0.3622 -0.3226 0.8745
vn 0.8745 -0.3226 0.3622
usemtl None
s off
f 25//19 26//19 28//19 27//19
f 27//20 28//20 30//20 29//20
f 29//21 30//21 32//21 31//21
f 31//22 32//22 34//22 33//22
f 33//23 34//23 36//23 35//23
f 35//24 36//24 38//24 37//24
f 34//25 32//25 44//25 45//25
f 37//26 38//26 40//26 39//26
f 39//27 40//27 26//27 25//27
f 25//28 27//28 29//28 31//28 33//28 35//28 37//28 39//28
f 41//29 42//29 50//29 49//29
f 40//30 38//30 47//30 48//30
f 30//31 28//31 41//31 43//31
f 36//32 34//32 45//32 46//32
f 26//33 40//33 48//33 42//33
f 28//34 26//34 42//34 41//34
f 32//35 30//35 43//35 44//35
f 38//36 36//36 46//36 47//36
f 49//37 50//37 56//37 55//37 54//37 53//37 52//37 51//37
f 42//38 48//38 56//38 50//38
f 47//39 46//39 54//39 55//39
f 45//40 44//40 52//40 53//40
f 43//41 41//41 49//41 51//41
f 48//42 47//42 55//42 56//42
f 46//43 45//43 53//43 54//43
f 44//44 43//44 51//44 52//44
o Cylinder.001
v -0.056597 -0.493749 -0.231479
v -0.056597 -0.069289 -0.231479
v 0.032333 -0.493749 -0.194643
v 0.032333 -0.069289 -0.194643
v 0.069169 -0.493749 -0.105712
v 0.069169 -0.069289 -0.105712
v 0.032333 -0.493749 -0.016782
v 0.032333 -0.069289 -0.016782
v -0.056597 -0.493749 0.020054
v -0.056597 -0.069289 0.020054
v -0.145528 -0.493749 -0.016782
v -0.145528 -0.069289 -0.016782
v -0.182364 -0.493749 -0.105712
v -0.182364 -0.069289 -0.105712
v -0.145528 -0.493749 -0.194643
v -0.145528 -0.069289 -0.194643
v -0.023618 0.100172 -0.138692
v -0.056597 0.100172 -0.152352
v -0.009957 0.100172 -0.105712
v -0.023618 0.100172 -0.072733
v -0.056597 0.100172 -0.059073
v -0.089577 0.100172 -0.072733
v -0.103237 0.100172 -0.105712
v -0.089577 0.100172 -0.138692
v -0.002257 0.182064 -0.160053
v -0.056597 0.182064 -0.182562
v 0.020252 0.182064 -0.105712
v -0.002257 0.182064 -0.051372
v -0.056597 0.182064 -0.028863
v -0.110938 0.182064 -0.051372
v -0.133447 0.182064 -0.105712
v -0.110938 0.182064 -0.160053
vn 0.3827 0.0000 -0.9239
vn 0.9239 0.0000 -0.3827
vn 0.9239 0.0000 0.3827
vn 0.3827 0.0000 0.9239
vn -0.3827 0.0000 0.9239
vn -0.9239 0.0000 0.3827
vn 0.3514 0.3961 0.8483
vn -0.9239 0.0000 -0.3827
vn -0.3827 0.0000 -0.9239
vn 0.0000 -1.0000 0.0000
vn 0.3622 -0.3226 -0.8745
vn -0.8483 0.3961 -0.3514
vn 0.8483 0.3961 -0.3514
vn -0.3514 0.3961 0.8483
vn -0.3514 0.3961 -0.8483
vn 0.3514 0.3961 -0.8483
vn 0.8483 0.3961 0.3514
vn -0.8483 0.3961 0.3514
vn 0.0000 1.0000 0.0000
vn -0.3622 -0.3226 -0.8745
vn -0.8745 -0.3226 0.3622
vn 0.3622 -0.3226 0.8745
vn 0.8745 -0.3226 -0.3622
vn -0.8745 -0.3226 -0.3622
vn -0.3622 -0.3226 0.8745
vn 0.8745 -0.3226 0.3622
usemtl None
s off
f 57//45 58//45 60//45 59//45
f 59//46 60//46 62//46 61//46
f 61//47 62//47 64//47 63//47
f 63//48 64//48 66//48 65//48
f 65//49 66//49 68//49 67//49
f 67//50 68//50 70//50 69//50
f 66//51 64//51 76//51 77//51
f 69//52 70//52 72//52 71//52
f 71//53 72//53 58//53 57//53
f 57//54 59//54 61//54 63//54 65//54 67//54 69//54 71//54
f 73//55 74//55 82//55 81//55
f 72//56 70//56 79//56 80//56
f 62//57 60//57 73//57 75//57
f 68//58 66//58 77//58 78//58
f 58//59 72//59 80//59 74//59
f 60//60 58//60 74//60 73//60
f 64//61 62//61 75//61 76//61
f 70//62 68//62 78//62 79//62
f 81//63 82//63 88//63 87//63 86//63 85//63 84//63 83//63
f 74//64 80//64 88//64 82//64
f 79//65 78//65 86//65 87//65
f 77//66 76//66 84//66 85//66
f 75//67 73//67 81//67 83//67
f 80//68 79//68 87//68 88//68
f 78//69 77//69 85//69 86//69
f 76//70 75//70 83//70 84//70
o Cylinder
v -0.056597 -0.493749 0.189369
v -0.056597 -0.069289 0.189369
v 0.032333 -0.493749 0.226205
v 0.032333 -0.069289 0.226205
v 0.069169 -0.493749 0.315136
v 0.069169 -0.069289 0.315136
v 0.032333 -0.493749 0.404066
v 0.032333 -0.069289 0.404066
v -0.056597 -0.493749 0.440902
v -0.056597 -0.069289 0.440902
v -0.145528 -0.493749 0.404066
v -0.145528 -0.069289 0.404066
v -0.182364 -0.493749 0.315136
v -0.182364 -0.069289 0.315136
v -0.145528 -0.493749 0.226205
v -0.145528 -0.069289 0.226205
v -0.023618 0.100172 0.282156
v -0.056597 0.100172 0.268496
v -0.009957 0.100172 0.315136
v -0.023618 0.100172 0.348115
v -0.056597 0.100172 0.361776
v -0.089577 0.100172 0.348115
v -0.103237 0.100172 0.315136
v -0.089577 0.100172 0.282156
v -0.002257 0.182064 0.260795
v -0.056597 0.182064 0.238286
v 0.020252 0.182064 0.315136
v -0.002257 0.182064 0.369476
v -0.056597 0.182064 0.391985
v -0.110938 0.182064 0.369476
v -0.133447 0.182064 0.315136
v -0.110938 0.182064 0.260795
vn 0.3827 0.0000 -0.9239
vn 0.9239 0.0000 -0.3827
vn 0.9239 0.0000 0.3827
vn 0.3827 0.0000 0.9239
vn -0.3827 0.0000 0.9239
vn -0.9239 0.0000 0.3827
vn 0.3514 0.3961 0.8483
vn -0.9239 0.0000 -0.3827
vn -0.3827 0.0000 -0.9239
vn 0.0000 -1.0000 0.0000
vn 0.3622 -0.3226 -0.8745
vn -0.8483 0.3961 -0.3514
vn 0.8483 0.3961 -0.3514
vn -0.3514 0.3961 0.8483
vn -0.3514 0.3961 -0.8483
vn 0.3514 0.3961 -0.8483
vn 0.8483 0.3961 0.3514
vn -0.8483 0.3961 0.3514
vn 0.0000 1.0000 0.0000
vn -0.3622 -0.3226 -0.8745
vn -0.8745 -0.3226 0.3622
vn 0.3622 -0.3226 0.8745
vn 0.8745 -0.3226 -0.3622
vn -0.8745 -0.3226 -0.3622
vn -0.3622 -0.3226 0.8745
vn 0.8745 -0.3226 0.3622
usemtl None
s off
f 89//71 90//71 92//71 91//71
f 91//72 92//72 94//72 93//72
f 93//73 94//73 96//73 95//73
f 95//74 96//74 98//74 97//74
f 97//75 98//75 100//75 99//75
f 99//76 100//76 102//76 101//76
f 98//77 96//77 108//77 109//77
f 101//78 102//78 104//78 103//78
f 103//79 104//79 90//79 89//79
f 89//80 91//80 93//80 95//80 97//80 99//80 101//80 103//80
f 105//81 106//81 114//81 113//81
f 104//82 102//82 111//82 112//82
f 94//83 92//83 105//83 107//83
f 100//84 98//84 109//84 110//84
f 90//85 104//85 112//85 106//85
f 92//86 90//86 106//86 105//86
f 96//87 94//87 107//87 108//87
f 102//88 100//88 110//88 111//88
f 113//89 114//89 120//89 119//89 118//89 117//89 116//89 115//89
f 106//90 112//90 120//90 114//90
f 111//91 110//91 118//91 119//91
f 109//92 108//92 116//92 117//92
f 107//93 105//93 113//93 115//93
f 112//94 111//94 119//94 120//94
f 110//95 109//95 117//95 118//95
f 108//96 107//96 115//96 116//96
o Cube.004_Cube.006
v -0.420525 -0.546208 0.712596
v -0.420525 -0.032312 0.712596
v -0.420525 -0.546208 -0.763652
v -0.420525 -0.032312 -0.763652
v 0.881571 -0.546208 0.712596
v 0.881571 -0.032312 0.712596
v 0.881571 -0.546208 -0.763652
v 0.881571 -0.032312 -0.763652
v -0.379452 -0.032312 0.666030
v -0.379452 -0.032312 -0.717085
v 0.840498 -0.032312 -0.717085
v 0.840498 -0.032312 0.666030
v -0.379452 -0.508717 0.666030
v -0.379452 -0.508717 -0.717085
v 0.840498 -0.508717 -0.717085
v 0.840498 -0.508717 0.666030
vn -1.0000 0.0000 0.0000
vn 0.0000 0.0000 -1.0000
vn 1.0000 0.0000 0.0000
vn 0.0000 0.0000 1.0000
vn 0.0000 -1.0000 0.0000
vn 0.0000 1.0000 0.0000
usemtl None
s off
f 121//97 122//97 124//97 123//97
f 123//98 124//98 128//98 127//98
f 127//99 128//99 126//99 125//99
f 125//100 126//100 122//100 121//100
f 123//101 127//101 125//101 121//101
f 128//102 124//102 130//102 131//102
f 132//97 131//97 135//97 136//97
f 126//102 128//102 131//102 132//102
f 124//102 122//102 129//102 130//102
f 122//102 126//102 132//102 129//102
f 135//102 134//102 133//102 136//102
f 130//99 129//99 133//99 134//99
f 129//98 132//98 136//98 133//98
f 131//100 130//100 134//100 135//100
o Cube.003_Cube.005
v -0.332020 0.913316 -0.272186
v -0.332020 2.310048 -0.272186
v -0.332020 0.913316 -0.763465
v -0.332020 2.310048 -0.763465
v 0.793066 0.913316 -0.272186
v 0.793066 2.310048 -0.272186
v 0.793066 0.913316 -0.763465
v 0.793066 2.310048 -0.763465
vn -1.0000 0.0000 0.0000
vn 0.0000 0.0000 -1.0000
vn 1.0000 0.0000 0.0000
vn 0.0000 0.0000 1.0000
vn 0.0000 -1.0000 0.0000
vn 0.0000 1.0000 0.0000
usemtl None
s off
f 137//103 138//103 140//103 139//103
f 139//104 140//104 144//104 143//104
f 143//105 144//105 142//105 141//105
f 141//106 142//106 138//106 137//106
f 139//107 143//107 141//107 137//107
f 144//108 140//108 138//108 142//108
o Cube.002_Cube.004
v -0.332020 0.913316 0.275812
v -0.332020 2.310048 0.275812
v -0.332020 0.913316 -0.215468
v -0.332020 2.310048 -0.215468
v 0.793066 0.913316 0.275812
v 0.793066 2.310048 0.275812
v 0.793066 0.913316 -0.215468
v 0.793066 2.310048 -0.215468
vn -1.0000 0.0000 0.0000
vn 0.0000 0.0000 -1.0000
vn 1.0000 0.0000 0.0000
vn 0.0000 0.0000 1.0000
vn 0.0000 -1.0000 0.0000
vn 0.0000 1.0000 0.0000
usemtl None
s off
f 145//109 146//109 148//109 147//109
f 147//110 148//110 152//110 151//110
f 151//111 152//111 150//111 149//111
f 149//112 150//112 146//112 145//112
f 147//113 151//113 149//113 145//113
f 152//114 148//114 146//114 150//114
o Cube.001_Cube.003
v -0.332020 0.913316 0.839342
v -0.332020 2.310048 0.839342
v -0.332020 0.913316 0.348063
v -0.332020 2.310048 0.348063
v 0.793066 0.913316 0.839342
v 0.793066 2.310048 0.839342
v 0.793066 0.913316 0.348063
v 0.793066 2.310048 0.348063
vn -1.0000 0.0000 0.0000
vn 0.0000 0.0000 -1.0000
vn 1.0000 0.0000 0.0000
vn 0.0000 0.0000 1.0000
vn 0.0000 -1.0000 0.0000
vn 0.0000 1.0000 0.0000
usemtl None
s off
f 153//115 154//115 156//115 155//115
f 155//116 156//116 160//116 159//116
f 159//117 160//117 158//117 157//117
f 157//118 158//118 154//118 153//118
f 155//119 159//119 157//119 153//119
f 160//120 156//120 154//120 158//120
o Cube_Cube.002
v -1.000000 -2.500000 1.000000
v -1.000000 2.500000 1.000000
v -1.000000 -2.500000 -1.000000
v -1.000000 2.500000 -1.000000
v 1.000000 -2.500000 1.000000
v 1.000000 2.500000 1.000000
v 1.000000 -2.500000 -1.000000
v 1.000000 2.500000 -1.000000
v 1.000000 2.444473 -0.923569
v 1.000000 -2.173373 -0.923569
v 1.000000 -2.173373 0.923569
v 1.000000 2.444473 0.923569
v -0.814088 2.444473 -0.923569
v -0.814088 -2.173373 -0.923569
v -0.814088 -2.173373 0.923569
v -0.814088 2.444473 0.923569
v -1.000000 -0.833333 1.000000
v -1.000000 0.833333 1.000000
v -1.000000 0.833333 -1.000000
v -1.000000 -0.833333 -1.000000
v 1.000000 0.833333 -1.000000
v 1.000000 -0.833333 -1.000000
v 1.000000 0.833333 1.000000
v 1.000000 -0.833333 1.000000
v 1.000000 0.905191 -0.923569
v 1.000000 -0.634091 -0.923569
v 1.000000 0.905191 0.923569
v 1.000000 -0.634091 0.923569
v -0.814088 0.905191 -0.923569
v -0.814088 -0.634091 -0.923569
v -0.814088 0.905191 0.923569
v -0.814088 -0.634091 0.923569
v -1.000000 -0.704529 1.000000
v -1.000000 0.666558 1.000000
v -1.000000 0.666558 -1.000000
v -1.000000 -0.704529 -1.000000
v 1.000000 0.666558 -1.000000
v 1.000000 -0.704529 -1.000000
v 1.000000 0.666558 1.000000
v 1.000000 -0.704529 1.000000
v 1.000000 0.780878 -0.923569
v 1.000000 -0.547748 -0.923569
v 1.000000 0.780878 0.923569
v 1.000000 -0.547748 0.923569
v -0.814088 0.780878 -0.923569
v -0.814088 -0.547748 -0.923569
v -0.814088 0.780878 0.923569
v -0.814088 -0.547748 0.923569
vn -1.0000 0.0000 0.0000
vn 0.0000 0.0000 -1.0000
vn 1.0000 0.0000 0.0000
vn 0.0000 0.0000 1.0000
vn 0.0000 -1.0000 0.0000
vn 0.0000 1.0000 0.0000
usemtl None
s off
f 178//121 162//121 164//121 179//121
f 179//122 164//122 168//122 181//122
f 168//123 166//123 172//123 169//123
f 183//124 166//124 162//124 178//124
f 163//125 167//125 165//125 161//125
f 168//126 164//126 162//126 166//126
f 169//125 172//125 176//125 173//125
f 181//123 168//123 169//123 185//123
f 184//123 165//123 171//123 188//123
f 165//123 167//123 170//123 171//123
f 189//123 173//123 176//123 191//123
f 185//124 169//124 173//124 189//124
f 188//122 171//122 175//122 192//122
f 171//126 170//126 174//126 175//126
f 172//122 187//122 191//122 176//122
f 170//124 186//124 190//124 174//124
f 174//123 190//123 192//123 175//123
f 166//123 183//123 187//123 172//123
f 200//123 184//123 188//123 204//123
f 167//123 182//123 186//123 170//123
f 197//123 181//123 185//123 201//123
f 165//124 184//124 177//124 161//124
f 199//124 183//124 178//124 194//124
f 163//122 180//122 182//122 167//122
f 195//122 179//122 181//122 197//122
f 161//121 177//121 180//121 163//121
f 194//121 178//121 179//121 195//121
f 177//121 193//121 196//121 180//121
f 193//121 194//121 195//121 196//121
f 180//122 196//122 198//122 182//122
f 196//122 195//122 197//122 198//122
f 184//124 200//124 193//124 177//124
f 200//124 199//124 194//124 193//124
f 182//123 198//123 202//123 186//123
f 198//123 197//123 201//123 202//123
f 183//123 199//123 203//123 187//123
f 199//123 200//123 204//123 203//123
f 206//123 205//123 207//123 208//123
f 191//126 187//126 185//126 189//126
f 202//124 201//124 205//124 206//124
f 203//125 207//125 205//125 201//125
f 203//122 204//122 208//122 207//122
f 208//126 204//126 202//126 206//126
f 192//125 190//125 186//125 188//125
f 186//123 202//123 204//123 188//123
f 201//123 185//123 187//123 203//123
