# Blender v2.79 (sub 0) OBJ File: 'Window_Wall_1.blend'
# www.blender.org
mtllib Roof.mtl
o Cube.002_Cube.001
v 3.859335 9.123951 -6.858891
v -4.140665 9.123950 -6.858891
v 3.859335 9.123951 6.903831
v -4.140665 9.123950 6.903831
v 3.859335 9.689947 -6.858891
v -4.140665 9.689947 -6.858891
v 3.859335 9.689947 6.903831
v -4.140665 9.689947 6.903831
v 1.192668 9.123950 -6.858891
v -1.473999 9.123950 -6.858891
v 1.192668 9.689947 -6.858891
v -1.473999 9.689947 -6.858891
v 1.192668 9.123950 6.903831
v -1.473999 9.123950 6.903831
v -1.473999 9.689947 6.903831
v 1.192668 9.689947 6.903831
v -4.140665 9.123950 3.463150
v -4.140665 9.123950 0.022469
v -4.140665 9.123950 -3.418211
v 3.859335 9.689947 3.463150
v 3.859335 9.689947 0.022469
v 3.859335 9.689947 -3.418211
v -4.140665 9.689947 -3.418211
v -4.140665 9.689947 0.022469
v -4.140665 9.689947 3.463150
v 3.859335 9.123951 -3.418211
v 3.859335 9.123951 0.022469
v 3.859335 9.123951 3.463150
v 1.192668 9.689947 -3.418211
v 1.192668 9.689947 0.022469
v 1.192668 9.689947 3.463150
v -1.473999 9.689947 -3.418211
v -1.473999 9.689947 0.022469
v -1.473999 9.689947 3.463150
v -1.473999 9.123950 -3.418211
v -1.473999 9.123950 0.022469
v -1.473999 9.123950 3.463150
v 1.192668 9.123950 -3.418211
v 1.192668 9.123950 0.022469
v 1.192668 9.123950 3.463150
v 1.459335 9.689947 6.903831
v 1.459335 9.123951 -6.858891
v 1.459335 9.689947 -6.858891
v 1.459335 9.123951 6.903831
v 1.459335 9.689947 -3.418211
v 1.459335 9.689947 0.022469
v 1.459335 9.689947 3.463150
v 1.459335 9.123951 -3.418211
v 1.459335 9.123951 0.022469
v 1.459335 9.123951 3.463150
v -1.740665 9.123950 -6.858891
v -1.740665 9.689947 -6.858891
v -1.740665 9.123950 6.903831
v -1.740665 9.689947 6.903831
v -1.740665 9.123950 -3.418211
v -1.740665 9.123950 0.022469
v -1.740665 9.123950 3.463150
v -1.740665 9.689947 -3.418211
v -1.740665 9.689947 0.022469
v -1.740665 9.689947 3.463150
v -4.140665 9.123950 -3.762279
v 3.859335 9.689947 -3.762279
v -4.140665 9.689947 -3.762279
v 3.859335 9.123951 -3.762279
v 1.192668 9.689947 -3.762279
v -1.473999 9.689947 -3.762279
v -1.473999 9.123950 -3.762279
v 1.192668 9.123950 -3.762279
v 1.459335 9.123951 -3.762279
v 1.459335 9.689947 -3.762279
v -1.740665 9.689947 -3.762279
v -1.740665 9.123950 -3.762279
v -4.140665 9.689947 3.807218
v 3.859335 9.123951 3.807218
v 1.192668 9.689947 3.807218
v -1.473999 9.689947 3.807218
v -1.473999 9.123950 3.807218
v 1.192668 9.123950 3.807218
v -4.140665 9.123950 3.807218
v 3.859335 9.689947 3.807218
v 1.459335 9.689947 3.807218
v 1.459335 9.123951 3.807218
v -1.740665 9.123950 3.807218
v -1.740665 9.689947 3.807218
vn 0.0000 0.0000 -1.0000
vn 1.0000 0.0000 0.0000
vn 0.0000 -1.0000 0.0000
vn 0.0000 0.0000 1.0000
vn 0.0000 1.0000 0.0000
vn -1.0000 0.0000 0.0000
usemtl None
s off
f 52//1 51//1 2//1 6//1
f 62//2 64//2 1//2 5//2
f 82//3 74//3 3//3 44//3
f 44//4 3//4 7//4 41//4
f 84//5 73//5 8//5 54//5
f 73//6 79//6 4//6 8//6
f 81//5 75//5 16//5 41//5
f 75//5 76//5 15//5 16//5
f 53//4 14//4 15//4 54//4
f 14//4 13//4 16//4 15//4
f 83//3 77//3 14//3 53//3
f 77//3 78//3 13//3 14//3
f 43//1 42//1 9//1 11//1
f 11//1 9//1 10//1 12//1
f 67//3 68//3 38//3 35//3
f 33//2 36//2 35//2 32//2
f 38//4 29//4 32//4 35//4
f 72//3 67//3 35//3 55//3
f 55//3 35//3 36//3 56//3
f 56//3 36//3 37//3 57//3
f 65//5 66//5 32//5 29//5
f 30//6 29//6 38//6 39//6
f 31//6 30//6 39//6 40//6
f 45//5 29//5 30//5 46//5
f 46//5 30//5 31//5 47//5
f 63//6 61//6 19//6 23//6
f 23//6 19//6 18//6 24//6
f 24//6 18//6 17//6 25//6
f 71//5 63//5 23//5 58//5
f 58//5 23//5 24//5 59//5
f 59//5 24//5 25//5 60//5
f 69//3 64//3 26//3 48//3
f 48//3 26//3 27//3 49//3
f 49//3 27//3 28//3 50//3
f 80//2 74//2 28//2 20//2
f 20//2 28//2 27//2 21//2
f 21//2 27//2 26//2 22//2
f 34//2 37//2 36//2 33//2
f 40//1 37//1 34//1 31//1
f 39//3 49//3 50//3 40//3
f 38//3 48//3 49//3 39//3
f 68//3 69//3 48//3 38//3
f 21//5 46//5 47//5 20//5
f 22//5 45//5 46//5 21//5
f 62//5 70//5 45//5 22//5
f 5//1 1//1 42//1 43//1
f 80//5 81//5 41//5 7//5
f 13//4 44//4 41//4 16//4
f 78//3 82//3 44//3 13//3
f 33//5 59//5 60//5 34//5
f 32//5 58//5 59//5 33//5
f 18//3 56//3 57//3 17//3
f 19//3 55//3 56//3 18//3
f 61//3 72//3 55//3 19//3
f 79//3 83//3 53//3 4//3
f 4//4 53//4 54//4 8//4
f 76//5 84//5 54//5 15//5
f 12//1 10//1 51//1 52//1
f 2//3 51//3 72//3 61//3
f 12//5 52//5 71//5 66//5
f 5//5 43//5 70//5 62//5
f 9//3 42//3 69//3 68//3
f 42//3 1//3 64//3 69//3
f 52//5 6//5 63//5 71//5
f 6//6 2//6 61//6 63//6
f 43//5 11//5 65//5 70//5
f 11//5 12//5 66//5 65//5
f 51//3 10//3 67//3 72//3
f 10//3 9//3 68//3 67//3
f 22//2 26//2 64//2 62//2
f 17//3 57//3 83//3 79//3
f 40//3 50//3 82//3 78//3
f 20//5 47//5 81//5 80//5
f 7//2 3//2 74//2 80//2
f 37//3 40//3 78//3 77//3
f 57//3 37//3 77//3 83//3
f 31//5 34//5 76//5 75//5
f 25//6 17//6 79//6 73//6
f 60//5 25//5 73//5 84//5
f 50//3 28//3 74//3 82//3
f 47//5 31//5 75//5 81//5
f 34//5 60//5 84//5 76//5
f 32//5 66//5 71//5 58//5
f 29//5 45//5 70//5 65//5
