# Blender v2.79 (sub 0) OBJ File: 'Shelving_Unit.blend'
# www.blender.org
mtllib Shelving_Unit.mtl
o Cube_Cube.001
v -0.041105 -1.460790 0.041105
v -0.041105 0.005591 0.041105
v -0.041105 -1.460790 -0.041105
v -0.041105 0.005591 -0.041105
v 0.041105 -1.460790 0.041105
v 0.041105 0.005591 0.041105
v 0.041105 -1.460790 -0.041105
v 0.041105 0.005591 -0.041105
v -0.041105 -1.111490 0.041105
v -0.041105 -1.111490 -0.041105
v 0.041105 -1.111490 -0.041105
v 0.041105 -1.111490 0.041105
v -0.041105 -1.022545 0.041105
v -0.041105 -1.022545 -0.041105
v 0.041105 -1.022545 -0.041105
v 0.041105 -1.022545 0.041105
v -0.041105 0.987826 -0.041105
v -0.041105 0.987826 0.041105
v 0.041105 0.987826 0.041105
v 0.041105 0.987826 -0.041105
v -0.041105 -0.078377 0.041105
v -0.041105 -0.078377 -0.041105
v 0.041105 -0.078377 -0.041105
v 0.041105 -0.078377 0.041105
v 0.041105 0.894156 0.041105
v 0.041105 0.894156 -0.041105
v -0.041105 0.894156 -0.041105
v -0.041105 0.894156 0.041105
v 0.041105 0.005591 1.086897
v 0.041105 -1.460790 1.086897
v 0.041105 0.005591 1.169106
v 0.041105 -1.111490 1.169106
v 0.041105 -1.111490 1.086897
v -0.041105 -1.111490 1.086897
v -0.041105 -1.111490 1.169106
v -0.041105 0.005591 1.086897
v -0.041105 -1.460790 1.086897
v -0.041105 0.005591 1.169106
v -0.041105 -1.460790 1.169106
v 0.041105 -1.460790 1.169106
v -2.168408 -1.460790 -0.041105
v -2.168408 0.005591 -0.041105
v -2.168408 -1.460790 0.041105
v -2.168408 0.005591 0.041105
v -2.250618 -1.460790 -0.041105
v -2.250618 0.005591 -0.041105
v -2.250618 -1.460790 0.041105
v -2.250618 0.005591 0.041105
v -2.168408 -1.111490 -0.041105
v -2.168408 -1.111490 0.041105
v -2.250618 -1.111490 0.041105
v -2.250618 -1.111490 -0.041105
v -2.168408 -1.022545 -0.041105
v -2.168408 -1.022545 0.041105
v -2.250618 -1.022545 0.041105
v -2.250618 -1.022545 -0.041105
v -2.168408 0.987826 0.041105
v -2.168408 0.987826 -0.041105
v -2.250618 0.987826 -0.041105
v -2.250618 0.987826 0.041105
v -2.168408 -0.078377 -0.041105
v -2.168408 -0.078377 0.041105
v -2.250618 -0.078377 0.041105
v -2.250618 -0.078377 -0.041105
v -2.250618 0.894157 -0.041105
v -2.250618 0.894157 0.041105
v -2.168408 0.894157 0.041105
v -2.168408 0.894157 -0.041105
v -0.041105 -1.022545 1.169106
v -0.041105 -1.022545 1.086897
v 0.041105 -1.022545 1.086897
v 0.041105 -1.022545 1.169106
v -0.041105 0.987826 1.086897
v -0.041105 0.987826 1.169106
v 0.041105 0.987826 1.169106
v 0.041105 0.987826 1.086897
v -0.041105 -0.078377 1.169106
v -0.041105 -0.078377 1.086897
v 0.041105 -0.078377 1.086897
v 0.041105 -0.078377 1.169106
v 0.041105 0.894156 1.169106
v 0.041105 0.894156 1.086897
v -0.041105 0.894156 1.086897
v -0.041105 0.894156 1.169106
v -2.168408 -1.460790 1.086897
v -2.168408 0.005591 1.086897
v -2.168408 -1.460790 1.169106
v -2.168408 0.005591 1.169106
v -2.250618 -1.460790 1.086897
v -2.250618 0.005591 1.086897
v -2.250618 -1.460790 1.169106
v -2.250618 0.005591 1.169106
v -2.168408 -1.111490 1.086897
v -2.168408 -1.111490 1.169106
v -2.250618 -1.111490 1.169106
v -2.250618 -1.111490 1.086897
v -2.168408 -1.022545 1.086897
v -2.168408 -1.022545 1.169106
v -2.250618 -1.022545 1.169106
v -2.250618 -1.022545 1.086897
v -2.168408 0.987826 1.169106
v -2.168408 0.987826 1.086897
v -2.250618 0.987826 1.086897
v -2.250618 0.987826 1.169106
v -2.168408 -0.078377 1.086897
v -2.168408 -0.078377 1.169106
v -2.250618 -0.078377 1.169106
v -2.250618 -0.078377 1.086897
v -2.250618 0.894157 1.086897
v -2.250618 0.894157 1.169106
v -2.168408 0.894157 1.169106
v -2.168408 0.894157 1.086897
vn 0.0000 0.0000 1.0000
vn 0.0000 0.0000 -1.0000
vn 1.0000 0.0000 0.0000
vn 0.0000 -1.0000 0.0000
vn -1.0000 0.0000 0.0000
vn 0.0000 1.0000 0.0000
usemtl None
s off
f 2//1 6//1 25//1 28//1
f 22//2 4//2 8//2 23//2
f 23//3 8//3 6//3 24//3
f 24//1 6//1 2//1 21//1
f 3//4 7//4 5//4 1//4
f 6//3 8//3 26//3 25//3
f 5//1 12//1 9//1 1//1
f 7//3 11//3 12//3 5//3
f 3//2 10//2 11//2 7//2
f 1//5 9//5 10//5 3//5
f 12//1 16//1 13//1 9//1
f 11//3 15//3 16//3 12//3
f 10//2 14//2 15//2 11//2
f 28//1 25//1 19//1 18//1
f 25//3 26//3 20//3 19//3
f 14//2 10//2 49//2 53//2
f 16//1 24//1 21//1 13//1
f 15//3 23//3 24//3 16//3
f 14//2 22//2 23//2 15//2
f 13//5 21//5 22//5 14//5
f 8//2 4//2 27//2 26//2
f 26//2 27//2 17//2 20//2
f 4//5 2//5 28//5 27//5
f 20//6 17//6 18//6 19//6
f 4//2 22//2 61//2 42//2
f 13//6 14//6 53//6 54//6
f 57//6 102//6 73//6 18//6
f 27//4 28//4 67//4 68//4
f 18//6 17//6 58//6 57//6
f 17//2 27//2 68//2 58//2
f 2//6 4//6 42//6 44//6
f 10//4 9//4 50//4 49//4
f 22//4 21//4 62//4 61//4
f 42//2 46//2 65//2 68//2
f 62//1 44//1 48//1 63//1
f 63//5 48//5 46//5 64//5
f 64//2 46//2 42//2 61//2
f 43//4 47//4 45//4 41//4
f 46//5 48//5 66//5 65//5
f 45//2 52//2 49//2 41//2
f 47//5 51//5 52//5 45//5
f 43//1 50//1 51//1 47//1
f 41//3 49//3 50//3 43//3
f 52//2 56//2 53//2 49//2
f 51//5 55//5 56//5 52//5
f 50//1 54//1 55//1 51//1
f 68//2 65//2 59//2 58//2
f 65//5 66//5 60//5 59//5
f 56//2 64//2 61//2 53//2
f 55//5 63//5 64//5 56//5
f 54//1 62//1 63//1 55//1
f 53//3 61//3 62//3 54//3
f 48//1 44//1 67//1 66//1
f 66//1 67//1 57//1 60//1
f 44//3 42//3 68//3 67//3
f 60//6 57//6 58//6 59//6
f 38//1 31//1 81//1 84//1
f 78//2 36//2 29//2 79//2
f 79//3 29//3 31//3 80//3
f 80//1 31//1 38//1 77//1
f 37//4 30//4 40//4 39//4
f 31//3 29//3 82//3 81//3
f 40//1 32//1 35//1 39//1
f 30//3 33//3 32//3 40//3
f 37//2 34//2 33//2 30//2
f 39//5 35//5 34//5 37//5
f 32//1 72//1 69//1 35//1
f 33//3 71//3 72//3 32//3
f 34//2 70//2 71//2 33//2
f 84//1 81//1 75//1 74//1
f 81//3 82//3 76//3 75//3
f 72//1 80//1 77//1 69//1
f 71//3 79//3 80//3 72//3
f 70//2 78//2 79//2 71//2
f 69//5 77//5 78//5 70//5
f 29//2 36//2 83//2 82//2
f 82//2 83//2 73//2 76//2
f 36//5 38//5 84//5 83//5
f 76//6 73//6 74//6 75//6
f 35//1 69//1 98//1 94//1
f 69//6 70//6 97//6 98//6
f 84//1 74//1 101//1 111//1
f 77//1 38//1 88//1 106//1
f 83//4 84//4 111//4 112//4
f 74//6 73//6 102//6 101//6
f 28//4 83//4 112//4 67//4
f 38//6 36//6 86//6 88//6
f 34//4 35//4 94//4 93//4
f 78//4 77//4 106//4 105//4
f 86//2 90//2 109//2 112//2
f 106//1 88//1 92//1 107//1
f 107//5 92//5 90//5 108//5
f 108//2 90//2 86//2 105//2
f 87//4 91//4 89//4 85//4
f 90//5 92//5 110//5 109//5
f 89//2 96//2 93//2 85//2
f 91//5 95//5 96//5 89//5
f 87//1 94//1 95//1 91//1
f 85//3 93//3 94//3 87//3
f 96//2 100//2 97//2 93//2
f 95//5 99//5 100//5 96//5
f 94//1 98//1 99//1 95//1
f 112//2 109//2 103//2 102//2
f 109//5 110//5 104//5 103//5
f 100//2 108//2 105//2 97//2
f 99//5 107//5 108//5 100//5
f 98//1 106//1 107//1 99//1
f 97//3 105//3 106//3 98//3
f 92//1 88//1 111//1 110//1
f 110//1 111//1 101//1 104//1
f 88//3 86//3 112//3 111//3
f 104//6 101//6 102//6 103//6
f 67//5 112//5 102//5 57//5
f 18//3 73//3 83//3 28//3
f 62//4 21//4 78//4 105//4
f 2//6 44//6 86//6 36//6
f 21//3 2//3 36//3 78//3
f 44//5 62//5 105//5 86//5
f 50//4 9//4 34//4 93//4
f 13//6 54//6 97//6 70//6
f 54//5 50//5 93//5 97//5
f 9//3 13//3 70//3 34//3
