# Blender v2.79 (sub 0) OBJ File: 'Window_Wall_1.blend'
# www.blender.org
mtllib Window_Wall.mtl
o Cube_Cube.002
v -0.423663 -3.883351 6.903831
v -0.423663 4.116649 6.903831
v -0.423663 -3.883351 -6.858891
v -0.423663 4.116649 -6.858891
v 0.142333 -3.883351 6.903831
v 0.142333 4.116649 6.903831
v 0.142333 -3.883351 -6.858891
v 0.142333 4.116649 -6.858891
v -0.423663 -3.883351 -3.418211
v -0.423663 -3.883351 3.463150
v -0.423663 0.116649 6.903831
v -0.423663 2.116649 6.903831
v -0.423663 4.116649 3.463150
v -0.423663 4.116649 -3.418211
v -0.423663 2.116649 -6.858891
v -0.423663 0.116649 -6.858891
v 0.142333 2.116649 -6.858891
v 0.142333 0.116649 -6.858891
v 0.142333 -3.883351 3.463150
v 0.142333 -3.883351 -3.418211
v 0.142333 4.116649 -3.418211
v 0.142333 4.116649 3.463150
v 0.142333 2.116649 6.903831
v 0.142333 0.116649 6.903831
v 0.142333 0.116649 -3.418211
v 0.142333 0.116649 3.463150
v 0.142333 2.116649 -3.418211
v 0.142333 2.116649 3.463150
v -0.423663 0.116649 0.194504
v 0.142333 0.116649 0.194504
v 0.142333 -3.883351 0.194504
v -0.423663 -3.883351 0.194504
v -0.423663 0.116649 3.463150
v -0.423663 0.116649 -3.418211
v -0.423663 2.116649 3.463150
v -0.423663 2.116649 -3.418211
v -0.423663 -3.883351 -0.149565
v 0.142333 -3.883351 -0.149565
v 0.142333 0.116649 -0.149565
v -0.423663 0.116649 -0.149565
v -0.423663 4.116649 0.194504
v 0.142333 4.116649 0.194504
v 0.142333 2.116649 0.194504
v -0.423663 2.116649 0.194504
v -0.423663 4.116649 -0.149565
v 0.142333 4.116649 -0.149565
v 0.142333 2.116649 -0.149565
v -0.423663 2.116649 -0.149565
vn -1.0000 0.0000 0.0000
vn 0.0000 1.0000 0.0000
vn 1.0000 0.0000 0.0000
vn 0.0000 0.0000 1.0000
vn 0.0000 -1.0000 0.0000
vn 0.0000 0.0000 -1.0000
usemtl None
s off
f 36//1 14//1 4//1 15//1
f 30//2 29//2 33//2 26//2
f 28//3 22//3 6//3 23//3
f 29//4 30//4 43//4 44//4
f 3//5 7//5 20//5 9//5
f 8//2 4//2 14//2 21//2
f 22//2 13//2 2//2 6//2
f 31//5 32//5 37//5 38//5
f 42//2 41//2 13//2 22//2
f 10//5 19//5 5//5 1//5
f 5//4 24//4 11//4 1//4
f 32//5 31//5 19//5 10//5
f 10//1 33//1 29//1 32//1
f 24//4 23//4 12//4 11//4
f 23//4 6//4 2//4 12//4
f 7//3 18//3 25//3 20//3
f 26//3 28//3 23//3 24//3
f 31//3 30//3 26//3 19//3
f 18//3 17//3 27//3 25//3
f 17//3 8//3 21//3 27//3
f 3//6 16//6 18//6 7//6
f 43//3 42//3 22//3 28//3
f 46//3 42//3 43//3 47//3
f 26//6 33//6 35//6 28//6
f 25//4 27//4 36//4 34//4
f 9//1 34//1 16//1 3//1
f 39//3 30//3 31//3 38//3
f 19//3 26//3 24//3 5//3
f 43//5 28//5 35//5 44//5
f 16//6 15//6 17//6 18//6
f 29//1 44//1 48//1 40//1
f 47//6 39//6 40//6 48//6
f 15//6 4//6 8//6 17//6
f 1//1 11//1 33//1 10//1
f 34//1 36//1 15//1 16//1
f 40//1 34//1 9//1 37//1
f 11//1 12//1 35//1 33//1
f 12//1 2//1 13//1 35//1
f 20//3 25//3 39//3 38//3
f 48//1 45//1 14//1 36//1
f 41//1 45//1 48//1 44//1
f 29//1 40//1 37//1 32//1
f 25//2 34//2 40//2 39//2
f 9//5 20//5 38//5 37//5
f 35//1 13//1 41//1 44//1
f 30//3 39//3 47//3 43//3
f 27//5 47//5 48//5 36//5
f 27//3 21//3 46//3 47//3
f 21//2 14//2 45//2 46//2
f 41//2 42//2 46//2 45//2
